<svg width="635" height="214" viewBox="0 0 635 214" fill="none" xmlns="http://www.w3.org/2000/svg">
<path fill-rule="evenodd" clip-rule="evenodd" d="M178 120.764C178 120.65 178 120.536 178 120.422C178 66.6174 145.317 23 105 23C64.6832 23 32 66.6174 32 120.422C32 120.536 32.0001 120.65 32.0004 120.764H42.0259C42.1041 80.1469 74.8958 53.0812 105.313 53.0812C135.731 53.0812 166.647 80.1469 166.721 120.764H178Z" fill="#190062"/>
<path fill-rule="evenodd" clip-rule="evenodd" d="M41.7245 118.253C65.986 118.253 82.9157 131.978 82.9157 151.565C82.9157 156.229 82.7824 158.361 82.1159 162.225H31.9932C32.2598 167.688 36.3923 171.286 42.391 171.286C46.9234 171.286 50.256 169.954 50.9225 167.422H81.5827C79.0499 182.479 63.8531 191.94 42.391 191.94C16.2632 191.94 0 179.148 0 155.163C0 131.711 16.6631 118.253 41.7245 118.253ZM41.5912 136.242C35.8591 136.242 32.2598 140.372 31.9932 146.235H50.9225C50.7892 140.106 47.5899 136.242 41.5912 136.242ZM122.219 189.275H90.2257V96H122.219V189.275ZM171.254 118.253C195.516 118.253 212.446 131.978 212.446 151.565C212.446 156.229 212.312 158.361 211.646 162.225H161.523C161.79 167.688 165.922 171.286 171.921 171.286C176.453 171.286 179.786 169.954 180.452 167.422H211.113C208.58 182.479 193.383 191.94 171.921 191.94C145.793 191.94 129.53 179.148 129.53 155.163C129.53 131.711 146.193 118.253 171.254 118.253ZM171.121 136.242C165.389 136.242 161.79 140.372 161.523 146.235H180.452C180.319 140.106 177.12 136.242 171.121 136.242ZM300.042 160.493C298.042 179.681 282.179 191.94 259.25 191.94C234.322 191.94 217.792 177.282 217.792 155.03C217.792 132.777 234.322 118.253 259.25 118.253C282.179 118.253 298.042 130.379 300.042 149.567H268.048C266.982 145.836 264.183 144.103 259.384 144.103C253.518 144.103 249.786 148.234 249.786 155.03C249.786 161.826 253.518 165.956 259.384 165.956C264.183 165.956 266.982 164.224 268.048 160.493H300.042ZM359.339 120.918V144.903H344.009V157.562C344.009 164.624 348.941 166.356 352.941 166.356C355.625 166.356 356.572 166.254 358.467 166.05L358.47 166.049L358.476 166.049L358.478 166.048L358.599 166.035L358.785 166.015C358.961 165.996 359.145 165.977 359.339 165.956V189.275C354.94 190.075 349.208 190.874 340.278 190.874C325.614 190.874 312.017 186.344 312.017 163.958V144.903H302.686V120.918H312.017V101.33H344.009V120.918H359.339ZM400.025 189.275H368.031V120.918H400.025V137.174C402.424 125.981 410.289 119.319 420.287 119.319C422.457 119.319 423.101 119.428 424.388 119.646C424.524 119.669 424.667 119.693 424.819 119.719V149.966C424.579 149.93 424.348 149.895 424.125 149.861L424.123 149.861C421.876 149.52 420.422 149.3 417.754 149.3C408.289 149.3 400.025 151.832 400.025 169.687V189.275ZM513.033 155.03C513.033 177.282 496.637 191.94 471.575 191.94C446.514 191.94 430.117 177.282 430.117 155.03C430.117 132.777 446.514 118.253 471.575 118.253C496.637 118.253 513.033 132.777 513.033 155.03ZM552.338 131.578C554.87 125.049 562.335 118.919 573.666 118.919C590.863 118.919 603.26 133.31 603.26 155.163C603.26 176.883 590.996 191.274 573.666 191.274C561.936 191.274 554.604 184.744 552.338 178.748V213.26H520.344V120.918H552.338V131.578ZM551.005 155.163C551.005 161.826 555.004 166.489 560.469 166.489C565.935 166.489 569.934 161.826 569.934 155.163C569.934 148.634 566.068 144.103 560.469 144.103C554.87 144.103 551.005 148.634 551.005 155.163ZM485.048 163.136L479.277 157.365L483.394 154.987C483.716 154.801 483.903 154.448 483.876 154.077C483.85 153.706 483.613 153.384 483.268 153.246L464.908 145.922C464.549 145.779 464.138 145.863 463.863 146.137C463.589 146.411 463.505 146.822 463.648 147.182L470.971 165.544C471.109 165.889 471.431 166.126 471.802 166.152C472.173 166.179 472.526 165.992 472.712 165.67L475.09 161.553L480.861 167.324C481.042 167.506 481.289 167.608 481.546 167.608C481.804 167.608 482.05 167.506 482.232 167.324L485.048 164.508C485.427 164.129 485.427 163.515 485.048 163.136ZM459.22 141.494C459.599 141.115 460.213 141.115 460.592 141.494L462.746 143.649C463.125 144.028 463.125 144.642 462.746 145.02C462.557 145.21 462.309 145.304 462.061 145.304C461.812 145.304 461.564 145.21 461.375 145.02L459.22 142.865C458.841 142.487 458.841 141.873 459.22 141.494ZM461.322 148.198C461.322 147.663 460.888 147.229 460.352 147.229H457.305C456.769 147.229 456.335 147.663 456.335 148.198C456.335 148.734 456.769 149.168 457.305 149.168H460.352C460.888 149.168 461.322 148.734 461.322 148.198ZM458.774 153.347L460.929 151.192C461.308 150.813 461.922 150.813 462.3 151.192C462.679 151.57 462.679 152.184 462.3 152.563L460.145 154.718C459.956 154.907 459.708 155.002 459.459 155.002C459.211 155.002 458.963 154.907 458.774 154.718C458.395 154.339 458.395 153.725 458.774 153.347ZM465.924 143.596C466.46 143.596 466.894 143.162 466.894 142.626V139.578C466.894 139.043 466.46 138.608 465.924 138.608C465.389 138.608 464.954 139.042 464.954 139.578V142.626C464.954 143.162 465.389 143.596 465.924 143.596ZM470.288 144.574C470.099 144.763 469.851 144.858 469.603 144.858C469.354 144.858 469.106 144.763 468.917 144.574C468.538 144.195 468.538 143.581 468.917 143.203L471.072 141.048C471.45 140.669 472.064 140.669 472.443 141.048C472.822 141.426 472.822 142.04 472.443 142.419L470.288 144.574Z" fill="black"/>
<circle cx="624" cy="178" r="11" fill="#190062"/>
</svg>
